<svg width="30" height="32" viewBox="0 0 30 32" fill="none" xmlns="http://www.w3.org/2000/svg">
<path d="M14.9282 4.93063C15.4297 2.36415 18.0703 0.820812 20.5526 1.64337L26.0754 3.47346C28.12 4.15095 29.3582 6.22546 28.9842 8.34661L26.2101 24.0793C25.865 26.0367 24.2343 27.5094 22.2521 27.6541L15.9821 28.1116C13.1289 28.3198 10.8584 25.7586 11.407 22.951L14.9282 4.93063Z" fill="white"/>
<path opacity="0.7" d="M13.8823 5.38968C14.0449 4.577 13.4169 3.82123 12.5881 3.83235L8.39313 3.88867C7.785 3.89683 7.26355 4.32492 7.1371 4.91981L4.07904 19.3069C3.96756 19.8313 4.18902 20.3705 4.63696 20.6652L8.49191 23.2014C9.2632 23.7089 10.303 23.2745 10.4841 22.3693L13.8823 5.38968Z" fill="white"/>
<path opacity="0.5" d="M5.52755 8.06859C5.68549 7.27175 5.08315 6.52644 4.27091 6.51367L3.04507 6.4944C2.42273 6.48462 1.88051 6.91669 1.75111 7.5255L0.470271 13.5514C0.354195 14.0974 0.599212 14.6568 1.07933 14.9417L2.25694 15.6405C3.02973 16.0991 4.02377 15.6555 4.19848 14.774L5.52755 8.06859Z" fill="white"/>
<path d="M19.0972 9.70384C19.5398 9.2091 20.0932 8.79898 20.7572 8.4735C21.4342 8.13499 22.1698 7.96574 22.964 7.96574C23.7712 7.96574 24.4807 8.1415 25.0926 8.49302C25.7176 8.83153 26.1993 9.32627 26.5378 9.97725C26.8763 10.6282 27.0456 11.3899 27.0456 12.2622C27.0456 12.6658 27.0065 13.0824 26.9284 13.512C26.7331 14.6187 26.3425 15.6017 25.7566 16.461C25.1708 17.3072 24.4612 17.9647 23.628 18.4334C22.7947 18.9021 21.9224 19.1365 21.011 19.1365C20.2168 19.1365 19.5398 18.9737 18.98 18.6482C18.4332 18.3227 18.0166 17.9126 17.7301 17.4179L16.5584 24.1164H13.8047L16.617 8.1415H19.3706L19.0972 9.70384ZM24.1357 13.512C24.1748 13.2516 24.1943 13.0173 24.1943 12.809C24.1943 12.0408 23.973 11.4419 23.5303 11.0123C23.0876 10.5827 22.5213 10.3678 21.8313 10.3678C21.3365 10.3678 20.8483 10.498 20.3666 10.7584C19.8848 11.0058 19.4682 11.3703 19.1167 11.8521C18.7652 12.3338 18.5308 12.9001 18.4136 13.5511C18.3616 13.8896 18.3355 14.137 18.3355 14.2932C18.3355 15.0614 18.5569 15.6603 18.9995 16.0899C19.4552 16.5195 20.0216 16.7344 20.6986 16.7344C21.2063 16.7344 21.7011 16.6042 22.1828 16.3438C22.6645 16.0834 23.0811 15.7123 23.4327 15.2306C23.7842 14.7489 24.0185 14.176 24.1357 13.512Z" fill="#013281"/>
</svg>
